<svg width="70" height="65" viewBox="0 0 70 65" fill="none" xmlns="http://www.w3.org/2000/svg">
<path d="M5.93807 33.3721C5.73679 32.8103 5.73679 32.2032 5.93807 31.6415C9.98349 20.3396 21.4664 12.1875 34.9997 12.1875C48.5272 12.1875 60.0043 20.3315 64.0585 31.6279C64.2626 32.1885 64.2626 32.7952 64.0585 33.3585C60.016 44.6604 48.5331 52.8125 34.9997 52.8125C21.4722 52.8125 9.99224 44.6685 5.93807 33.3721Z" stroke="#0057FF" stroke-width="1.5" stroke-linecap="round" stroke-linejoin="round"/>
<path d="M43.75 32.5C43.75 34.6549 42.8281 36.7215 41.1872 38.2452C39.5462 39.769 37.3206 40.625 35 40.625C32.6794 40.625 30.4538 39.769 28.8128 38.2452C27.1719 36.7215 26.25 34.6549 26.25 32.5C26.25 30.3451 27.1719 28.2785 28.8128 26.7548C30.4538 25.231 32.6794 24.375 35 24.375C37.3206 24.375 39.5462 25.231 41.1872 26.7548C42.8281 28.2785 43.75 30.3451 43.75 32.5Z" stroke="#0057FF" stroke-width="1.5" stroke-linecap="round" stroke-linejoin="round"/>
</svg>
