<svg width="70" height="65" viewBox="0 0 70 65" fill="none" xmlns="http://www.w3.org/2000/svg">
<path d="M11.6081 22.2706C8.87945 25.2611 6.84759 28.7441 5.64062 32.5C9.40896 44.2487 21.1281 52.8125 34.9998 52.8125C37.896 52.8125 40.696 52.4387 43.3502 51.7427M18.1648 16.8675C23.16 13.8067 29.015 12.1791 34.9998 12.1875C48.8715 12.1875 60.5877 20.7513 64.356 32.4946C62.2909 38.9115 57.8578 44.4481 51.8348 48.1325M18.1648 16.8675L8.74979 8.125M18.1648 16.8675L28.8106 26.7529M51.8348 48.1325L61.2498 56.875M51.8348 48.1325L41.189 38.2471C42.0015 37.4925 42.6461 36.5968 43.0859 35.6109C43.5256 34.6251 43.752 33.5684 43.752 32.5014C43.752 31.4343 43.5256 30.3776 43.0859 29.3918C42.6461 28.4059 42.0015 27.5102 41.189 26.7556C40.3764 26.0011 39.4117 25.4025 38.35 24.9942C37.2883 24.5858 36.1504 24.3757 35.0012 24.3757C33.8521 24.3757 32.7142 24.5858 31.6525 24.9942C30.5908 25.4025 29.6261 26.0011 28.8135 26.7556M41.186 38.2444L28.8165 26.7583" stroke="#B4B4B4" stroke-width="1.5" stroke-linecap="round" stroke-linejoin="round"/>
</svg>
