<svg width="50" height="50" viewBox="0 0 50 50" fill="none" xmlns="http://www.w3.org/2000/svg">
<circle cx="25" cy="25" r="25" fill="#B8B8B8"/>
<path d="M31.5313 14.25C31.5313 16.1148 30.7905 17.9032 29.4719 19.2218C28.1533 20.5405 26.3649 21.2813 24.5001 21.2813C22.6353 21.2813 20.8468 20.5405 19.5282 19.2218C18.2096 17.9032 17.4688 16.1148 17.4688 14.25C17.4688 12.3852 18.2096 10.5968 19.5282 9.27816C20.8468 7.95954 22.6353 7.21875 24.5001 7.21875C26.3649 7.21875 28.1533 7.95954 29.4719 9.27816C30.7905 10.5968 31.5313 12.3852 31.5313 14.25ZM10.4395 40.7213C10.4997 37.0319 12.0076 33.5141 14.6379 30.9263C17.2682 28.3386 20.8102 26.8884 24.5001 26.8884C28.1899 26.8884 31.7319 28.3386 34.3622 30.9263C36.9926 33.5141 38.5005 37.0319 38.5607 40.7213C34.1496 42.7439 29.3529 43.7878 24.5001 43.7813C19.4826 43.7813 14.7201 42.6863 10.4395 40.7213Z" stroke="black" stroke-width="1.5" stroke-linecap="round" stroke-linejoin="round"/>
</svg>
