<svg width="44" height="44" viewBox="0 0 44 44" fill="none" xmlns="http://www.w3.org/2000/svg">
<g clip-path="url(#clip0_312_202)">
<path d="M5.5 18.3333C5.5 20.0186 5.83194 21.6874 6.47688 23.2444C7.12181 24.8015 8.06711 26.2162 9.2588 27.4079C10.4505 28.5996 11.8652 29.5449 13.4222 30.1898C14.9792 30.8347 16.648 31.1667 18.3333 31.1667C20.0186 31.1667 21.6874 30.8347 23.2444 30.1898C24.8015 29.5449 26.2162 28.5996 27.4079 27.4079C28.5996 26.2162 29.5449 24.8015 30.1898 23.2444C30.8347 21.6874 31.1667 20.0186 31.1667 18.3333C31.1667 16.648 30.8347 14.9792 30.1898 13.4222C29.5449 11.8652 28.5996 10.4505 27.4079 9.2588C26.2162 8.06711 24.8015 7.12181 23.2444 6.47688C21.6874 5.83194 20.0186 5.5 18.3333 5.5C16.648 5.5 14.9792 5.83194 13.4222 6.47688C11.8652 7.12181 10.4505 8.06711 9.2588 9.2588C8.06711 10.4505 7.12181 11.8652 6.47688 13.4222C5.83194 14.9792 5.5 16.648 5.5 18.3333Z" stroke="black" stroke-width="1.2" stroke-linecap="round" stroke-linejoin="round"/>
<path d="M38.5 38.5L27.5 27.5" stroke="black" stroke-width="1.2" stroke-linecap="round" stroke-linejoin="round"/>
</g>
<defs>
<clipPath id="clip0_312_202">
<rect width="44" height="44" fill="white"/>
</clipPath>
</defs>
</svg>
