<svg width="44" height="44" viewBox="0 0 44 44" fill="none" xmlns="http://www.w3.org/2000/svg">
<path d="M14.9294 8.00573C16.4347 7.93886 18.0869 8.45945 19.2188 9.47111C20.5437 10.6554 21.3168 12.1381 21.4195 13.9254C21.511 15.5175 20.939 17.1439 19.8767 18.3329C18.7176 19.6304 17.1711 20.3537 15.4395 20.452C13.9372 20.5256 12.3605 19.9741 11.2184 18.999C9.98754 17.9483 9.12659 16.4503 9.0071 14.8161C8.88233 13.1099 9.36886 11.4518 10.5037 10.1519C11.6567 8.83134 13.1913 8.12522 14.9294 8.00573ZM14.6437 8.42792C14.241 8.48603 13.8425 8.54678 13.4528 8.66828C12.2884 9.0312 11.2524 9.7891 10.5242 10.7632C9.60669 11.9905 9.22046 13.5838 9.44089 15.0976C9.64919 16.5276 10.4793 17.9718 11.6454 18.8339C12.8706 19.7398 14.2655 20.1569 15.7849 20.0188C16.2163 19.9622 16.6315 19.889 17.0463 19.7539C18.1532 19.3935 19.1418 18.6549 19.8482 17.7369C20.7362 16.5833 21.1785 15.0206 20.992 13.5721C20.792 12.0172 20.0266 10.5834 18.7718 9.62436C17.8588 8.92668 16.7961 8.50491 15.6466 8.42043C15.3137 8.39596 14.9766 8.41252 14.6437 8.42792Z" stroke="black" stroke-width="0.7"/>
<path d="M30.8906 12.5081C31.3009 12.4833 31.7516 12.5159 32.1535 12.5993C33.4949 12.8778 34.7506 13.68 35.5031 14.8358C36.2533 15.9881 36.5894 17.4447 36.2915 18.8034C36.0799 19.768 35.657 20.6294 34.9807 21.3549C34.0516 22.3517 32.7457 22.9825 31.3788 23.0274C30.9059 23.0693 30.3583 23.0238 29.8985 22.9003C29.1127 22.6894 28.3641 22.3376 27.7429 21.805C26.6914 20.9035 25.9787 19.6405 25.8783 18.2444C25.7752 16.8106 26.1935 15.3941 27.1511 14.3063C28.1301 13.1943 29.4204 12.6023 30.8906 12.5081ZM30.6374 12.9288C29.3244 13.059 28.1573 13.7043 27.3241 14.7256C26.5016 15.7335 26.1543 17.0444 26.2882 18.33C26.4181 19.5775 27.0853 20.7693 28.0621 21.5539C29.0716 22.365 30.2871 22.7081 31.5726 22.6156C32.9852 22.4406 34.1386 21.8205 35.0157 20.6915C35.7422 19.7563 36.1155 18.4465 35.9705 17.2693C35.8068 15.9414 35.168 14.7355 34.1007 13.9123C33.4069 13.3772 32.5468 13.0171 31.6716 12.9284C31.3356 12.8942 30.9744 12.9093 30.6374 12.9288Z" stroke="black" stroke-width="0.7"/>
<path d="M15.1248 21.0546C18.2551 20.9201 21.2486 22.1464 23.3844 24.4379C23.682 24.7572 23.9556 25.0951 24.2119 25.4482L24.4268 25.7586C24.4671 25.8229 24.5129 25.9258 24.5795 25.9656C24.6221 25.9911 24.6287 25.9787 24.6743 25.9684C24.8135 25.7787 25.0135 25.6228 25.1927 25.4716C25.8852 24.8871 26.6457 24.3982 27.481 24.042C29.6714 23.1077 32.1348 23.0725 34.3466 23.9571C36.6458 24.8767 38.3693 26.6745 39.328 28.9365C39.5984 29.5747 39.7763 30.2918 39.8768 30.9759C39.9998 31.8136 39.9665 32.6807 39.9666 33.5251C39.9666 33.9829 39.9984 34.4715 39.9415 34.9253C39.9175 35.1178 39.8626 35.2873 39.7882 35.4655C39.5861 35.9495 39.1589 36.3994 38.6684 36.5956C38.4099 36.699 38.188 36.7544 37.9071 36.7673L32.4153 36.7738L24.8013 36.7814C24.5929 36.7853 24.4026 36.8597 24.2019 36.9081C24.0361 36.9481 23.8439 36.9603 23.6735 36.9651L20.64 36.9686L14.7234 36.9697L9.98797 36.9696L7.50144 36.9627C7.23081 36.9508 6.98855 36.9187 6.73363 36.8266L6.59768 36.776L6.56224 36.7614L6.47713 36.7252C5.87179 36.4374 5.40233 35.9335 5.16575 35.3076C5.08321 35.0893 5.03741 34.8601 5.02236 34.6271C4.98067 33.9815 5.00995 33.3165 5.01053 32.6691C5.01111 32.0245 4.99233 31.3697 5.05007 30.7273C5.26016 28.3902 6.21145 26.2674 7.76775 24.5173C9.65227 22.3982 12.3171 21.2243 15.1248 21.0546ZM14.935 21.4753C14.4183 21.5201 13.9127 21.5765 13.4045 21.6846C11.248 22.1433 9.21109 23.3936 7.80024 25.0859C6.44644 26.7098 5.62316 28.6959 5.44198 30.8044C5.38745 31.439 5.40621 32.0843 5.4058 32.7209C5.40538 33.3679 5.35766 34.0582 5.42173 34.701C5.45282 35.0128 5.59648 35.3542 5.77072 35.6108L5.79958 35.6541C6.11136 36.1181 6.61498 36.4208 7.15877 36.5246C7.52612 36.5948 7.92511 36.5655 8.29826 36.5658L9.9904 36.5662L16.3313 36.5646L20.9929 36.5657L22.7006 36.5648C23.266 36.5643 23.8275 36.6086 24.375 36.445C24.8666 36.2982 25.33 35.8684 25.5668 35.4208C25.6913 35.1854 25.7636 34.9349 25.7977 34.6712C25.8565 34.2176 25.8144 33.7096 25.8143 33.251C25.814 32.4066 25.858 31.5377 25.7733 30.6984C25.7079 30.0505 25.594 29.3742 25.3964 28.7533C25.2824 28.3948 25.1691 28.033 25.019 27.6875C24.0541 25.4682 22.3898 23.6461 20.23 22.5413C18.6201 21.7175 16.7395 21.3351 14.935 21.4753ZM30.4378 23.743C29.8473 23.7919 29.2591 23.8761 28.687 24.0343C27.2243 24.4389 25.8814 25.265 24.8304 26.3548C24.8125 26.4449 25.0741 26.8558 25.125 26.9657C25.3699 27.494 25.595 28.0132 25.7614 28.5732C25.9666 29.2639 26.099 29.971 26.172 30.6875C26.2391 31.3456 26.2103 32.0298 26.2111 32.6914L26.2108 33.9614C26.21 34.3838 26.2154 34.7838 26.0932 35.193C25.9431 35.6956 25.638 36.0048 25.3122 36.3911L33.1799 36.3825L36.4249 36.383L37.4178 36.382C37.6772 36.3815 37.938 36.3901 38.193 36.3327C38.5193 36.2589 38.8089 36.0888 39.0461 35.8543C39.2901 35.613 39.4473 35.3269 39.5215 34.9912C39.6293 34.5041 39.5752 33.933 39.5752 33.4328C39.5752 32.8978 39.5938 32.3529 39.5605 31.8191C39.4718 30.3969 39.0531 28.9778 38.2882 27.77C37.0116 25.7543 35.0833 24.4054 32.7509 23.8907C32.0318 23.732 31.1708 23.6697 30.4378 23.743Z" stroke="black" stroke-width="0.7"/>
</svg>
