<svg width="44" height="44" viewBox="0 0 44 44" fill="none" xmlns="http://www.w3.org/2000/svg">
<path d="M12.375 22C12.375 22.3647 12.2301 22.7144 11.9723 22.9723C11.7144 23.2301 11.3647 23.375 11 23.375C10.6353 23.375 10.2856 23.2301 10.0277 22.9723C9.76987 22.7144 9.625 22.3647 9.625 22C9.625 21.6353 9.76987 21.2856 10.0277 21.0277C10.2856 20.7699 10.6353 20.625 11 20.625C11.3647 20.625 11.7144 20.7699 11.9723 21.0277C12.2301 21.2856 12.375 21.6353 12.375 22ZM23.375 22C23.375 22.3647 23.2301 22.7144 22.9723 22.9723C22.7144 23.2301 22.3647 23.375 22 23.375C21.6353 23.375 21.2856 23.2301 21.0277 22.9723C20.7699 22.7144 20.625 22.3647 20.625 22C20.625 21.6353 20.7699 21.2856 21.0277 21.0277C21.2856 20.7699 21.6353 20.625 22 20.625C22.3647 20.625 22.7144 20.7699 22.9723 21.0277C23.2301 21.2856 23.375 21.6353 23.375 22ZM34.375 22C34.375 22.3647 34.2301 22.7144 33.9723 22.9723C33.7144 23.2301 33.3647 23.375 33 23.375C32.6353 23.375 32.2856 23.2301 32.0277 22.9723C31.7699 22.7144 31.625 22.3647 31.625 22C31.625 21.6353 31.7699 21.2856 32.0277 21.0277C32.2856 20.7699 32.6353 20.625 33 20.625C33.3647 20.625 33.7144 20.7699 33.9723 21.0277C34.2301 21.2856 34.375 21.6353 34.375 22Z" stroke="black" stroke-width="1.5" stroke-linecap="round" stroke-linejoin="round"/>
</svg>
