<svg width="46" height="46" viewBox="0 0 46 46" fill="none" xmlns="http://www.w3.org/2000/svg">
<g clip-path="url(#clip0_385_16)">
<path d="M18.9956 3.52167C19.2131 2.21183 20.3489 1.25 21.6781 1.25H24.3195C25.6486 1.25 26.7845 2.21183 27.002 3.52167L27.3621 5.68217C27.5312 6.70683 28.2901 7.5285 29.2471 7.92967C30.2089 8.326 31.3133 8.27283 32.1591 7.66867L33.9402 6.39508C34.4641 6.02063 35.1038 5.84426 35.7455 5.89736C36.3872 5.95047 36.9892 6.22961 37.4444 6.68508L39.3125 8.55558C40.255 9.49567 40.3758 10.9771 39.6025 12.0598L38.3289 13.8408C37.7247 14.6867 37.6716 15.7887 38.0703 16.7505C38.4691 17.7099 39.2907 18.4663 40.3178 18.6355L42.4759 18.998C43.7881 19.2155 44.7476 20.3489 44.7476 21.6781V24.3219C44.7476 25.6511 43.7881 26.7869 42.4759 27.0044L40.3154 27.3645C39.2907 27.5337 38.4691 28.2901 38.0703 29.2495C37.6716 30.2113 37.7247 31.3133 38.3289 32.1592L39.6025 33.9427C40.3758 35.0229 40.2526 36.5043 39.3125 37.4468L37.442 39.3149C36.987 39.7698 36.3854 40.0485 35.7442 40.1016C35.1031 40.1547 34.4639 39.9787 33.9402 39.6049L32.1567 38.3313C31.3109 37.7272 30.2089 37.674 29.2495 38.0728C28.2876 38.4715 27.5336 39.2932 27.3621 40.3178L27.002 42.4783C26.7845 43.7882 25.6486 44.75 24.3195 44.75H21.6756C20.3465 44.75 19.2131 43.7882 18.9931 42.4783L18.6355 40.3178C18.4639 39.2932 17.7075 38.4715 16.7481 38.0703C15.7862 37.674 14.6842 37.7272 13.8384 38.3313L12.0549 39.6049C10.9746 40.3783 9.49323 40.255 8.55073 39.3149L6.68264 37.4444C6.22717 36.9893 5.94803 36.3872 5.89492 35.7455C5.84181 35.1038 6.01819 34.4641 6.39264 33.9403L7.66623 32.1592C8.27039 31.3133 8.32356 30.2113 7.92723 29.2495C7.52848 28.2901 6.70439 27.5337 5.67973 27.3645L3.51922 27.002C2.20939 26.7845 1.24756 25.6487 1.24756 24.3219V21.6781C1.24756 20.3489 2.20939 19.2131 3.51922 18.9956L5.67973 18.6355C6.70439 18.4663 7.52848 17.7099 7.92723 16.7505C8.32598 15.7887 8.27281 14.6867 7.66623 13.8408L6.39506 12.0573C6.02061 11.5335 5.84423 10.8938 5.89734 10.2521C5.95044 9.61035 6.22959 9.00831 6.68506 8.55317L8.55314 6.68508C9.00829 6.22961 9.61032 5.95047 10.252 5.89736C10.8937 5.84426 11.5335 6.02063 12.0573 6.39508L13.8384 7.66867C14.6842 8.27283 15.7886 8.326 16.7481 7.92725C17.7075 7.5285 18.4639 6.70683 18.6331 5.68217L18.9956 3.52167Z" stroke="black" stroke-width="1.2" stroke-linecap="round" stroke-linejoin="round"/>
<path d="M30.25 23C30.25 24.9228 29.4862 26.7669 28.1265 28.1265C26.7669 29.4862 24.9228 30.25 23 30.25C21.0772 30.25 19.2331 29.4862 17.8735 28.1265C16.5138 26.7669 15.75 24.9228 15.75 23C15.75 21.0772 16.5138 19.2331 17.8735 17.8735C19.2331 16.5138 21.0772 15.75 23 15.75C24.9228 15.75 26.7669 16.5138 28.1265 17.8735C29.4862 19.2331 30.25 21.0772 30.25 23Z" stroke="black" stroke-width="1.2" stroke-linecap="round" stroke-linejoin="round"/>
</g>
<defs>
<clipPath id="clip0_385_16">
<rect width="46" height="46" fill="white"/>
</clipPath>
</defs>
</svg>
